# xmcd
#
# Track frame offsets:
#	150
#	26202
#	27660
#	51077
#	55535
#	72925
#	83532
#	93397
#	106505
#	110890
#	117917
#	126195
#	131972
#	149950
#	161177
#	175595
#	192945
#	208992
#	216837
#	229870
#	243772
#	252800
#	261145
#	271322
#	282472
#	298740
#	310132
#
# Disc length: 4282
#
# Revision: 2
# Processed by: cddbd v1.5.1PL0 Copyright (c) Steve Scherf et al.
# Submitted via: Axialis_AX_CDPlayer 2.6
# Normalized: r0:TDELIM( - ),TSWAP
#
DISCID=a310b81b
DTITLE=Patrice Michaels - Introducing Patrice Michaels
DYEAR=1900
DGENRE=
TTITLE0=Gian Carlo Menotti - The Medium - Monica's Waltz
TTITLE1=Vivaldi - All'ombra du sisoetto
TTITLE2=Vivaldi - All'ombra du sisoetto
TTITLE3=Vivaldi - All'ombra du sisoetto
TTITLE4=Vivaldi - All'ombra du sisoetto
TTITLE5=Haydn - Pleasing Pain
TTITLE6=Colbran - Mi lagnero tacendo
TTITLE7=Dalayrac - Quand le bien-aime revuendra
TTITLE8=Lully - Seconde Divertissment
TTITLE9=Lully - Seconde Divertissment
TTITLE10=Lully - Seconde Divertissment
TTITLE11=Lully - Seconde Divertissment
TTITLE12=Lully - Seconde Divertissment
TTITLE13=Mendelssohn - Bei der Weige
TTITLE14=Mussorgsky - Where are you little star?
TTITLE15=Delibes - Les filles de Cadix
TTITLE16=Argento - Sleep
TTITLE17=Argento - Spring
TTITLE18=Faure - Tritesse
TTITLE19=Boulanger - Reflets
TTITLE20=Boulanger - Elle etait descendue
TTITLE21=Boulanger - Ell est gravement gaie
TTITLE22=Honegger - Vocalise-Etude
TTITLE23=Argento - when faces called flowers
TTITLE24=Argento - Prologue: Shadow and Substance
TTITLE25=Argento - Giocomo Puccini
TTITLE26=Vaughn Williams - Good-Bye
EXTD=
EXTT0=
EXTT1=
EXTT2=
EXTT3=
EXTT4=
EXTT5=
EXTT6=
EXTT7=
EXTT8=
EXTT9=
EXTT10=
EXTT11=
EXTT12=
EXTT13=
EXTT14=
EXTT15=
EXTT16=
EXTT17=
EXTT18=
EXTT19=
EXTT20=
EXTT21=
EXTT22=
EXTT23=
EXTT24=
EXTT25=
EXTT26=
PLAYORDER=
